<?xml version="1.0" standalone="no"?>
<!DOCTYPE svg PUBLIC "-//W3C//DTD SVG 20010904//EN"
 "http://www.w3.org/TR/2001/REC-SVG-20010904/DTD/svg10.dtd">
<svg version="1.0" xmlns="http://www.w3.org/2000/svg"
 width="500.000000pt" height="500.000000pt" viewBox="0 0 500.000000 500.000000"
 preserveAspectRatio="xMidYMid meet">

<g transform="translate(0.000000,500.000000) scale(0.100000,-0.100000)"
fill="#000000" stroke="none">
<path d="M2333 4573 c346 -2 908 -2 1250 0 342 1 60 2 -628 2 -687 0 -967 -1
-622 -2z"/>
<path d="M1628 4376 c-5 -93 -8 -415 -9 -715 l0 -546 -28 100 c-15 55 -33 110
-39 121 -16 30 -70 74 -90 73 -14 0 -13 -2 3 -9 60 -24 82 -74 141 -317 33
-137 42 -188 34 -193 -9 -6 -9 -9 0 -15 14 -9 90 -124 90 -137 0 -4 -13 -8
-28 -8 -16 0 -37 -9 -47 -20 -18 -20 -18 -20 -64 17 -25 20 -47 38 -49 39 -2
1 -12 37 -24 80 -31 115 -33 74 -3 -62 14 -64 25 -117 23 -118 -2 -2 -32 -13
-68 -25 -36 -13 -98 -40 -137 -61 -72 -39 -73 -39 -130 -27 -55 11 -63 17
-159 113 -98 99 -102 104 -108 156 -6 44 -1 79 24 178 17 67 29 124 26 127
-10 10 -73 -225 -78 -289 -2 -29 6 -47 43 -94 24 -31 67 -80 96 -108 49 -47
51 -51 36 -68 -9 -10 -18 -40 -21 -68 l-5 -50 -76 41 c-80 43 -193 123 -226
159 -11 12 -29 26 -40 32 -33 17 65 -79 127 -124 31 -23 59 -52 63 -65 5 -20
9 -22 25 -13 32 17 40 3 25 -43 -8 -23 -23 -103 -34 -177 -47 -313 -72 -733
-69 -1155 l1 -270 8 260 c21 653 35 887 74 1170 20 139 34 205 46 205 6 0 22
-6 37 -14 15 -7 37 -17 50 -21 21 -6 22 -5 11 14 -24 38 0 34 48 -9 26 -23 84
-59 128 -81 77 -37 84 -43 158 -143 42 -57 85 -110 95 -117 21 -17 27 -26
-130 196 -65 91 -118 168 -118 170 0 3 13 5 30 5 16 0 37 9 47 19 15 16 144
81 160 81 3 0 2 -12 -2 -27 -4 -16 -15 -79 -24 -141 l-17 -113 -58 86 c-33 47
-61 83 -64 80 -7 -6 133 -214 182 -270 l34 -40 64 31 c70 35 212 133 205 141
-3 2 -38 -17 -79 -44 -82 -55 -163 -103 -174 -103 -7 0 0 116 17 273 6 54 9
100 6 103 -9 9 -30 -139 -36 -261 l-6 -120 -42 57 c-37 49 -41 60 -34 85 5 15
17 81 27 145 9 64 20 121 23 126 3 5 20 16 36 25 17 9 24 16 17 17 -8 0 -65
-25 -128 -55 -95 -44 -119 -52 -140 -45 -13 5 -24 11 -24 14 0 8 133 68 225
102 50 18 80 33 69 34 -17 0 -23 8 -27 33 -2 17 -3 34 -1 36 1 1 20 -10 41
-25 21 -16 40 -29 42 -31 2 -1 -1 -8 -7 -15 -8 -10 21 -48 121 -155 133 -145
181 -185 88 -73 -28 33 -51 63 -51 66 0 2 293 4 650 4 l650 0 1 -72 c1 -50 3
-65 9 -48 4 14 5 63 2 110 -2 47 -1 179 3 293 l7 209 50 30 c27 17 47 33 44
35 -3 3 -20 -4 -38 -15 -18 -11 -103 -57 -188 -101 -85 -44 -152 -81 -149 -81
13 0 154 61 207 90 31 16 56 29 56 27 1 -1 0 -65 -2 -143 l-3 -141 -391 -6
c-215 -4 -507 -7 -649 -7 l-258 0 -20 26 c-12 15 -21 32 -21 39 0 6 -17 37
-39 67 -21 30 -42 70 -46 89 -5 19 -11 394 -14 834 -4 576 -8 753 -13 631z
m110 -1664 c19 -13 32 -70 32 -141 0 -55 -2 -62 -15 -51 -8 7 -15 18 -15 24 0
6 -25 31 -55 56 -30 25 -55 47 -55 50 0 3 13 20 29 38 30 32 54 39 79 24z
m1340 -84 l3 -46 -643 -4 c-354 -2 -644 -3 -645 -3 -1 0 -5 24 -9 53 l-7 52
649 -2 649 -3 3 -47z m-1841 -102 c65 -22 82 -38 47 -44 -30 -6 -37 -18 -23
-43 12 -24 12 -24 -10 -5 -11 11 -24 17 -26 14 -3 -3 17 -26 46 -52 28 -25 48
-46 44 -46 -19 0 -150 77 -190 112 -42 37 -57 73 -38 92 10 10 73 -2 150 -28z
m1843 19 c0 -13 -78 -15 -645 -15 -567 0 -645 2 -645 15 0 13 78 15 645 15
567 0 645 -2 645 -15z"/>
<path d="M1938 4465 c-86 -44 -113 -65 -84 -65 8 0 16 3 18 8 2 4 33 22 69 40
69 34 111 61 94 61 -5 0 -49 -20 -97 -44z"/>
<path d="M2135 4498 c44 -5 136 -6 205 -3 l125 6 -78 -48 c-43 -26 -73 -49
-67 -51 13 -5 148 78 154 95 4 10 -38 13 -207 12 -185 -1 -202 -3 -132 -11z"/>
<path d="M4236 4068 c-5 -250 -5 -626 0 -875 l9 -438 3 437 c1 241 1 635 0
875 l-3 438 -9 -437z"/>
<path d="M2795 4480 c-3 -5 1 -10 10 -10 9 0 13 5 10 10 -3 6 -8 10 -10 10 -2
0 -7 -4 -10 -10z"/>
<path d="M2857 4483 c-14 -4 -17 -11 -13 -26 3 -12 6 -25 6 -29 0 -5 4 -8 10
-8 5 0 9 10 7 21 -3 27 18 36 27 12 3 -10 9 -23 12 -30 3 -7 -15 -16 -53 -23
-31 -7 -64 -15 -71 -18 -12 -4 -12 -1 -3 16 10 19 8 24 -20 41 -28 17 -29 20
-12 30 16 9 16 10 1 11 -15 0 -38 -27 -38 -44 0 -3 11 -6 24 -6 33 0 43 -18
20 -35 -11 -8 -14 -15 -9 -16 6 0 -1 -5 -15 -10 -18 -6 -9 -7 31 -4 64 6 203
47 177 52 -9 3 -22 20 -28 39 -11 33 -17 36 -53 27z"/>
<path d="M2031 4475 c-6 -19 -8 -30 -9 -47 -2 -15 -13 -18 -72 -18 -40 0 -70
-4 -70 -10 0 -6 30 -10 70 -10 l70 0 1 -115 c2 -132 2 -131 12 -141 4 -4 7 52
7 124 l0 132 120 0 c73 0 120 4 120 10 0 6 -46 10 -119 10 l-120 0 -4 38 c-2
20 -5 33 -6 27z"/>
<path d="M2476 4383 c-3 -54 -2 -134 3 -178 7 -71 8 -60 10 98 0 97 -1 177 -3
177 -2 0 -6 -44 -10 -97z"/>
<path d="M1738 4458 c-6 -17 9 -69 23 -82 9 -8 10 -6 5 7 -15 45 -18 67 -7 67
6 0 11 -7 11 -15 0 -8 4 -15 10 -15 5 0 7 -8 3 -17 -5 -15 -3 -16 7 -6 20 18
1 67 -27 71 -11 2 -23 -3 -25 -10z"/>
<path d="M2800 4426 c0 -8 5 -18 10 -21 6 -3 10 1 10 9 0 8 -4 18 -10 21 -5 3
-10 -1 -10 -9z"/>
<path d="M3885 4430 c-3 -5 -2 -10 4 -10 5 0 13 5 16 10 3 6 2 10 -4 10 -5 0
-13 -4 -16 -10z"/>
<path d="M3351 4369 c-1 -40 -4 -46 -28 -56 l-28 -11 28 -1 c24 -1 27 -5 27
-37 0 -34 -1 -36 -27 -30 -132 31 -202 3 -249 -98 -45 -96 -22 -213 50 -251
l34 -19 -44 -62 c-24 -34 -44 -65 -44 -70 0 -4 10 -18 22 -31 19 -20 22 -35
22 -112 1 -106 14 -127 85 -137 25 -3 54 -13 64 -22 9 -8 19 -13 22 -10 12 11
-35 39 -80 47 -61 11 -75 30 -75 98 0 46 3 53 19 53 20 0 56 28 47 37 -3 3
-15 -2 -28 -11 -31 -22 -38 -20 -38 12 0 16 -9 37 -20 47 -11 10 -20 23 -20
28 0 9 129 187 135 187 2 0 15 -4 28 -9 24 -9 25 -11 12 -49 -8 -22 -17 -62
-21 -90 -6 -49 -5 -52 20 -62 34 -12 76 -13 76 -1 0 15 30 21 51 11 40 -22 12
-120 -35 -120 -18 0 -36 -51 -36 -100 0 -90 46 -137 145 -147 47 -5 61 -2 84
15 27 19 32 20 77 8 27 -8 58 -17 68 -22 12 -4 17 -4 13 2 -3 6 -33 19 -66 30
l-61 19 0 49 c0 26 7 76 16 110 24 91 23 151 -4 179 -12 13 -22 36 -22 53 0
16 -9 49 -20 73 -11 24 -20 45 -20 47 0 2 84 4 188 5 103 1 225 4 272 8 61 6
6 8 -197 9 l-282 2 -24 33 c-30 40 -117 214 -117 235 0 9 22 -6 54 -36 30 -28
66 -54 80 -58 59 -14 120 25 136 89 11 41 32 67 56 67 6 0 34 -16 62 -35 28
-19 62 -37 77 -41 23 -6 26 -11 23 -35 -3 -16 -1 -29 4 -29 4 0 9 7 9 15 1 8
2 20 3 26 0 6 18 17 39 24 64 22 97 65 97 127 0 25 3 29 10 18 16 -25 12 7 -5
40 -18 36 -38 38 -59 8 -23 -33 -19 -47 5 -18 19 23 22 23 34 7 16 -22 2 -102
-23 -130 -48 -55 -127 -54 -204 2 -26 19 -54 31 -73 31 -34 0 -65 -26 -65 -54
0 -49 -49 -95 -101 -96 -30 0 -48 10 -97 53 -54 46 -61 56 -61 87 1 19 0 40
-1 45 -1 6 -2 19 -1 30 1 12 -3 32 -8 45 -9 22 -10 20 -10 -21z"/>
<path d="M1823 4170 c0 -185 1 -205 7 -112 4 61 4 163 0 225 -6 92 -7 72 -7
-113z"/>
<path d="M2884 4365 c-8 -19 3 -35 24 -35 12 -1 10 -5 -8 -15 -23 -13 -23 -14
-4 -15 27 0 59 24 50 38 -4 7 -19 12 -34 12 -26 1 -26 1 -8 15 18 13 18 15 3
15 -10 0 -20 -7 -23 -15z"/>
<path d="M2211 4356 c-6 -7 -9 -21 -5 -30 7 -18 29 -21 39 -6 3 6 -1 10 -10
10 -12 0 -15 6 -10 20 7 23 2 26 -14 6z"/>
<path d="M3834 4345 c-9 -37 0 -40 13 -5 6 17 7 30 2 30 -5 0 -11 -11 -15 -25z"/>
<path d="M2310 4241 l0 -121 -127 -1 c-108 -2 -119 -3 -68 -9 33 -4 90 -8 128
-9 l67 -1 0 -51 c0 -31 4 -48 10 -44 6 3 10 26 10 49 0 49 11 56 83 56 l38 0
-66 -80 c-64 -80 -80 -105 -49 -79 20 17 134 155 134 163 0 3 -31 6 -70 6
l-70 0 0 114 c0 66 -4 117 -10 121 -6 4 -10 -37 -10 -114z"/>
<path d="M2797 4353 c-14 -14 -6 -42 14 -48 30 -10 57 18 39 39 -13 16 -42 21
-53 9z m43 -22 c0 -5 -7 -11 -15 -15 -9 -3 -15 0 -15 9 0 8 7 15 15 15 8 0 15
-4 15 -9z"/>
<path d="M2718 4329 c-10 -5 -18 -18 -18 -29 0 -26 38 -36 59 -15 15 15 14 16
-11 10 -32 -8 -35 0 -11 27 18 20 8 23 -19 7z"/>
<path d="M3430 4287 c0 -2 14 -16 30 -32 17 -16 30 -24 30 -17 0 13 -39 52
-52 52 -4 0 -8 -1 -8 -3z"/>
<path d="M3530 4192 c0 -5 9 -17 20 -27 22 -20 26 -9 6 18 -14 18 -26 22 -26
9z"/>
<path d="M1168 4116 c-55 -20 -85 -42 -118 -87 -37 -52 -54 -131 -41 -190 7
-29 7 -45 0 -47 -28 -10 -50 -97 -29 -118 7 -7 -4 -21 -34 -42 -32 -23 -54
-51 -77 -97 -29 -59 -31 -71 -26 -132 4 -60 2 -72 -23 -117 -65 -114 -121
-344 -119 -486 1 -85 6 -69 18 60 13 136 52 285 99 383 l37 78 35 -48 c50 -68
99 -93 183 -93 75 0 107 12 148 57 38 40 59 87 66 145 l6 50 61 -5 c66 -6 58
6 -11 18 -24 4 -43 10 -43 13 1 21 21 29 75 31 129 4 190 68 188 196 -1 70
-19 133 -49 166 -11 12 -12 22 -4 43 26 70 0 146 -65 186 -37 23 -149 50 -205
49 -19 0 -52 -6 -72 -13z m255 -185 c29 -28 29 -29 5 -24 -15 3 -30 -2 -39
-13 -13 -15 -12 -16 9 -10 12 4 31 4 43 1 20 -7 20 -13 17 -123 -4 -161 -32
-213 -121 -231 -24 -5 -33 -13 -35 -31 -5 -35 -22 -50 -22 -19 0 33 -52 139
-81 166 -13 12 -35 23 -49 25 -16 2 -28 12 -34 31 -12 35 1 61 34 65 53 8 103
70 120 147 12 61 99 70 153 16z"/>
<path d="M1285 3884 c-9 -9 -13 -19 -10 -22 3 -3 11 0 17 6 7 7 20 12 30 12
10 0 18 5 18 10 0 16 -37 12 -55 -6z"/>
<path d="M1381 3770 c-2 -78 -17 -104 -55 -94 -29 7 -47 -19 -27 -39 8 -8 11
-7 11 4 0 10 11 15 35 16 45 1 55 -15 24 -38 -17 -13 -20 -19 -8 -19 35 0 55
55 24 67 -14 5 -14 8 1 24 14 16 15 27 7 81 l-10 63 -2 -65z"/>
<path d="M1326 3802 c-4 -13 -5 -26 -2 -29 10 -11 18 4 14 29 l-4 23 -8 -23z"/>
<path d="M1422 3795 c0 -16 2 -22 5 -12 2 9 2 23 0 30 -3 6 -5 -1 -5 -18z"/>
<path d="M3610 4106 c0 -11 33 -36 48 -36 13 0 11 5 -8 20 -24 19 -40 25 -40
16z"/>
<path d="M2005 4089 c-11 -17 1 -21 15 -4 8 9 8 15 2 15 -6 0 -14 -5 -17 -11z"/>
<path d="M2601 4076 c-7 -8 -18 -39 -25 -68 -10 -43 -10 -59 0 -83 l13 -30 1
33 c0 17 4 32 9 32 5 0 16 3 24 6 10 4 21 -4 31 -23 l16 -28 -6 28 c-4 19 -2
27 7 27 9 0 8 4 -4 13 -10 7 -17 30 -19 57 -3 48 -24 64 -47 36z m34 -52 c0
-33 -4 -40 -22 -42 -26 -4 -31 20 -11 63 16 36 33 26 33 -21z"/>
<path d="M3773 4080 c-13 -5 -23 -12 -23 -15 0 -10 27 -5 46 10 21 16 11 18
-23 5z"/>
<path d="M2854 4038 c-46 -37 -12 -110 37 -80 15 10 24 11 32 3 18 -18 31 -12
15 7 -9 9 -15 31 -13 49 1 26 -2 32 -22 36 -14 3 -34 -4 -49 -15z m48 -28 c-7
-51 -52 -65 -52 -16 0 27 19 48 40 44 10 -2 14 -12 12 -28z"/>
<path d="M1950 4039 c0 -5 5 -7 10 -4 6 3 10 8 10 11 0 2 -4 4 -10 4 -5 0 -10
-5 -10 -11z"/>
<path d="M1907 4003 c-4 -3 -7 -11 -7 -17 0 -6 5 -5 12 2 6 6 9 14 7 17 -3 3
-9 2 -12 -2z"/>
<path d="M2725 3990 c-4 -6 6 -10 24 -10 16 0 33 5 36 10 4 6 -6 10 -24 10
-16 0 -33 -4 -36 -10z"/>
<path d="M1850 3955 c-26 -31 3 -35 236 -32 l229 2 -234 3 c-208 2 -232 4
-221 17 7 9 11 18 8 20 -3 3 -11 -2 -18 -10z"/>
<path d="M2725 3960 c-8 -13 25 -13 45 0 12 8 9 10 -12 10 -15 0 -30 -4 -33
-10z"/>
<path d="M2357 3949 c-22 -13 -24 -77 -2 -86 21 -8 55 25 55 53 0 29 -29 46
-53 33z m31 -33 c2 -9 -2 -24 -10 -33 -11 -14 -13 -13 -19 8 -3 13 -4 30 -1
37 6 17 26 10 30 -12z"/>
<path d="M1756 3932 c-3 -5 0 -26 6 -48 10 -32 13 -35 16 -16 3 19 6 21 18 11
17 -14 18 -2 4 35 -9 25 -33 35 -44 18z"/>
<path d="M4138 3894 c-8 -8 23 -44 38 -44 7 0 15 7 18 16 4 10 2 14 -6 11 -7
-2 -20 2 -29 9 -9 8 -18 11 -21 8z"/>
<path d="M2586 3871 c-5 -8 365 -4 389 4 6 2 -79 4 -187 4 -108 1 -199 -3
-202 -8z"/>
<path d="M2880 3826 c0 -8 -6 -17 -12 -19 -10 -4 -10 -6 0 -6 6 -1 12 -7 12
-14 0 -8 9 -22 19 -31 15 -14 24 -15 38 -7 16 9 16 10 -5 11 -30 0 -40 27 -16
45 18 13 18 14 2 15 -10 0 -18 5 -18 10 0 6 -4 10 -10 10 -5 0 -10 -6 -10 -14z"/>
<path d="M3192 3811 c-7 -18 -7 -31 -2 -31 11 0 25 48 17 56 -2 3 -9 -9 -15
-25z"/>
<path d="M2110 3822 c0 -14 31 -52 43 -52 8 0 8 3 -1 12 -7 7 -12 20 -12 30 0
10 -7 18 -15 18 -8 0 -15 -3 -15 -8z"/>
<path d="M2593 3823 c35 -4 37 -6 38 -41 0 -20 4 -46 9 -57 6 -14 9 -4 9 37
l1 57 38 4 c20 2 -1 4 -48 4 -47 0 -68 -2 -47 -4z"/>
<path d="M4097 3806 c-10 -25 33 -50 47 -27 3 5 -2 8 -12 7 -11 -1 -16 5 -14
17 3 20 -13 23 -21 3z"/>
<path d="M2352 3788 c-17 -17 -16 -23 16 -89 31 -66 48 -78 27 -20 -12 35 -11
40 6 54 24 21 24 43 0 57 -25 13 -34 13 -49 -2z m45 -24 c8 -22 -15 -43 -27
-24 -5 8 -10 21 -10 28 0 17 30 15 37 -4z"/>
<path d="M2735 3780 c-3 -6 5 -10 19 -10 14 0 28 5 31 10 3 6 -5 10 -19 10
-14 0 -28 -4 -31 -10z"/>
<path d="M4023 3777 c-37 -13 -39 -16 -18 -43 14 -18 14 -18 15 4 0 14 4 21
11 16 6 -3 15 0 20 7 7 11 12 12 29 1 22 -13 27 -3 8 16 -14 14 -20 13 -65 -1z"/>
<path d="M1835 3748 c3 -36 22 -47 52 -29 16 9 16 10 -4 11 -14 0 -23 7 -25
22 -5 36 -26 33 -23 -4z"/>
<path d="M2050 3743 c-27 -34 -22 -86 11 -117 l21 -21 -16 27 c-34 53 -18 118
29 118 54 0 73 -73 29 -117 -32 -32 -26 -40 9 -12 22 17 27 29 27 65 0 79 -66
113 -110 57z"/>
<path d="M3761 3751 c-12 -7 -11 -20 4 -80 11 -47 22 -71 31 -71 24 0 90 32
77 37 -7 2 -21 0 -32 -6 -30 -17 -51 -13 -51 8 0 13 9 21 30 26 43 10 47 25 4
18 -38 -6 -54 5 -54 40 0 12 8 17 25 17 14 0 25 5 25 10 0 12 -40 13 -59 1z"/>
<path d="M1811 3698 c-1 -41 -4 -48 -21 -48 -36 0 -54 -66 -25 -90 12 -10 20
-9 40 4 22 15 25 23 24 74 -1 31 -5 68 -9 82 -7 20 -8 16 -9 -22z m7 -88 c4
-23 -11 -40 -35 -40 -17 0 -17 42 -1 58 17 17 32 10 36 -18z"/>
<path d="M3905 3730 c-3 -5 3 -10 14 -10 11 0 23 5 26 10 3 6 -3 10 -14 10
-11 0 -23 -4 -26 -10z"/>
<path d="M2210 3720 c-12 -8 -10 -10 10 -10 14 0 32 5 40 10 12 8 10 10 -10
10 -14 0 -32 -5 -40 -10z"/>
<path d="M3928 3703 c-30 -8 -20 -24 10 -17 34 8 53 24 27 23 -11 -1 -28 -3
-37 -6z"/>
<path d="M2220 3688 c-14 -6 -20 -12 -14 -15 7 -2 27 3 45 11 24 10 28 14 14
15 -11 0 -31 -5 -45 -11z"/>
<path d="M1950 3650 c0 -5 9 -10 20 -10 11 0 20 5 20 10 0 6 -9 10 -20 10 -11
0 -20 -4 -20 -10z"/>
<path d="M2860 3611 c0 -6 -20 -13 -45 -17 -47 -7 -57 -22 -28 -45 15 -12 16
-12 10 3 -7 20 9 35 16 16 4 -10 8 -9 16 2 8 12 13 12 19 3 9 -14 55 -9 60 6
2 6 10 7 18 4 20 -7 18 7 -3 23 -21 15 -63 18 -63 5z m37 -27 c-9 -9 -28 6
-21 18 4 6 10 6 17 -1 6 -6 8 -13 4 -17z"/>
<path d="M2314 3574 c-8 -20 -28 -47 -44 -60 -24 -21 -30 -35 -35 -90 -9 -77
2 -104 51 -135 27 -16 42 -19 83 -13 47 6 51 5 59 -17 8 -21 10 -20 16 16 8
40 24 75 51 109 14 18 22 12 145 -117 l130 -135 165 105 c91 58 164 108 162
110 -8 8 -162 -87 -311 -191 -9 -6 -29 9 -67 50 -132 143 -193 204 -205 204
-19 0 -71 -65 -78 -97 -7 -28 -7 -28 -71 -23 -54 5 -70 10 -92 33 -23 22 -24
26 -8 20 20 -7 20 -7 1 22 -16 24 -16 27 -2 22 14 -5 15 -3 6 13 -5 10 -10 21
-10 23 0 7 23 3 38 -7 28 -17 57 2 72 51 8 26 20 48 25 50 6 1 29 -23 53 -54
23 -31 42 -50 42 -43 0 17 -78 120 -90 120 -6 0 -10 13 -10 29 0 28 -14 41
-46 41 -8 0 -22 -16 -30 -36z m60 8 c2 -4 0 -28 -6 -54 -9 -39 -14 -46 -35
-44 -22 1 -24 4 -18 36 10 59 16 70 35 70 10 0 21 -3 24 -8z m-93 -119 c-9
-16 -10 -16 -11 -1 0 9 3 25 7 35 7 16 8 17 11 1 2 -10 -1 -25 -7 -35z m64 -3
c4 -6 1 -17 -5 -25 -9 -11 -17 -12 -32 -4 -15 8 -17 13 -7 25 14 16 35 18 44
4z"/>
<path d="M2615 3566 c-17 -13 -18 -17 -5 -55 15 -47 37 -70 26 -28 -5 20 -2
27 14 32 11 3 20 11 20 16 0 12 -17 12 -25 -1 -9 -15 -22 -12 -29 5 -4 11 3
19 19 25 14 5 25 12 25 15 0 10 -26 5 -45 -9z"/>
<path d="M2700 3560 c0 -5 6 -10 14 -10 8 0 18 5 21 10 3 6 -3 10 -14 10 -12
0 -21 -4 -21 -10z"/>
<path d="M2705 3530 c-8 -13 15 -13 35 0 12 8 11 10 -7 10 -12 0 -25 -4 -28
-10z"/>
<path d="M4020 3530 c0 -5 4 -10 9 -10 5 0 11 -9 14 -20 6 -22 32 -27 43 -8 5
7 2 9 -8 5 -11 -4 -18 2 -22 19 -6 23 -36 35 -36 14z"/>
<path d="M3797 3474 c-4 -4 -6 -37 -5 -73 l1 -66 6 55 6 54 18 -28 c18 -26 19
-27 38 -11 18 17 19 16 29 -11 6 -16 15 -38 20 -49 l10 -20 -4 20 c-3 11 -10
46 -17 78 -12 54 -29 78 -29 39 0 -10 -6 -27 -14 -37 -13 -18 -15 -17 -33 18
-10 21 -22 35 -26 31z"/>
<path d="M3944 3440 c3 -14 6 -32 6 -41 0 -8 7 -24 15 -35 14 -18 15 -16 9 19
-4 25 -2 43 7 54 12 14 12 16 -2 11 -9 -4 -22 -1 -29 5 -10 10 -11 7 -6 -13z"/>
<path d="M3245 3395 c-5 -2 -36 -11 -69 -20 -32 -9 -56 -18 -54 -21 7 -6 150
27 163 38 9 8 -20 10 -40 3z"/>
<path d="M1457 3315 c30 -59 63 -171 63 -215 0 -21 -9 -66 -19 -99 -10 -33
-15 -59 -11 -56 9 6 35 81 45 132 11 54 -45 234 -83 265 -11 9 -9 2 5 -27z"/>
<path d="M3730 3344 c0 -5 12 -20 26 -33 14 -13 34 -41 45 -62 30 -59 123
-294 159 -402 18 -54 34 -96 36 -94 13 13 -100 334 -163 464 -31 63 -103 153
-103 127z"/>
<path d="M2478 3175 c42 -61 293 -295 316 -295 6 0 2 7 -8 15 -23 17 -109 98
-235 219 -52 50 -85 78 -73 61z"/>
<path d="M1780 3173 c-8 -3 -18 -11 -22 -17 -9 -14 2 -235 13 -261 5 -11 6 38
3 114 -7 137 -4 150 34 151 17 0 15 -61 -4 -88 -8 -12 -11 -22 -5 -22 17 0 41
43 41 75 0 46 -21 62 -60 48z"/>
<path d="M1891 3147 c-57 -70 -51 -257 9 -275 12 -4 12 -1 -2 14 -41 46 -42
168 -3 244 16 32 15 39 -4 17z"/>
<path d="M2324 3119 c-84 -41 -92 -74 -23 -88 l33 -7 -38 -22 c-25 -15 -36
-28 -34 -40 3 -15 17 -17 103 -18 l100 -1 -92 6 c-50 3 -94 9 -97 12 -10 9 14
25 69 47 l49 19 -64 14 -64 14 23 22 c13 12 39 29 57 38 32 15 43 25 27 25 -5
0 -27 -9 -49 -21z"/>
<path d="M3757 3085 c-23 -187 -37 -716 -18 -686 8 13 12 13 27 0 9 -8 25 -27
34 -42 l18 -29 22 24 c12 13 40 53 62 91 l40 67 94 0 c56 0 94 4 94 10 0 6
-35 10 -86 10 -64 0 -85 3 -82 13 3 8 39 14 114 18 l109 5 -103 2 c-57 1 -102
5 -100 10 2 4 11 28 22 54 l18 47 62 3 61 3 -63 5 -62 5 -37 -70 c-45 -87
-153 -275 -159 -275 -2 0 -11 14 -19 30 -9 17 -27 36 -40 42 -35 16 -32 46 15
173 39 105 47 136 33 121 -4 -4 -19 19 -33 50 -24 55 -25 61 -17 183 9 151 6
229 -6 136z m18 -345 c20 -39 19 -50 -5 -50 -17 0 -20 7 -20 40 0 48 4 50 25
10z m14 -72 c0 -7 -9 -31 -19 -53 l-19 -40 0 53 c-1 46 1 52 19 52 11 0 20 -6
19 -12z"/>
<path d="M3956 3090 c4 -25 12 -58 20 -75 14 -30 14 -29 8 15 -4 25 -12 59
-20 75 -14 30 -14 29 -8 -15z"/>
<path d="M2042 3115 c2 -5 14 -32 27 -59 19 -41 23 -61 18 -110 -4 -57 -4 -59
9 -31 24 55 11 130 -33 181 -13 16 -23 25 -21 19z"/>
<path d="M1965 3050 c-4 -6 -10 -8 -14 -5 -12 7 -20 -96 -11 -136 l8 -34 1 36
c1 24 7 39 17 43 27 10 34 7 34 -16 0 -13 4 -28 8 -35 4 -7 6 20 4 60 -4 68
-14 97 -33 97 -4 0 -11 -5 -14 -10z m29 -36 c8 -29 -4 -48 -26 -42 -11 2 -13
10 -6 36 10 39 23 41 32 6z"/>
<path d="M2158 3013 c12 -2 32 -2 45 0 12 2 2 4 -23 4 -25 0 -35 -2 -22 -4z"/>
<path d="M2180 2983 c-14 -3 -29 -9 -35 -15 -13 -13 66 -1 80 13 9 9 0 10 -45
2z"/>
<path d="M4240 2677 c0 -14 34 -77 41 -77 12 0 -10 57 -27 71 -8 6 -14 9 -14
6z"/>
<path d="M1609 2582 c11 -16 27 -35 36 -42 16 -14 16 -71 -2 -165 -4 -23 -2
-27 7 -18 7 6 15 41 18 78 l5 67 74 -79 c102 -108 79 -68 -42 71 -94 108 -142
151 -96 88z"/>
<path d="M4271 2544 c0 -11 3 -14 6 -6 3 7 2 16 -1 19 -3 4 -6 -2 -5 -13z"/>
<path d="M3751 2323 c-1 -36 4 -48 34 -77 27 -27 35 -43 33 -68 l-1 -33 -4 32
c-3 19 -12 37 -24 43 -18 10 -19 7 -19 -44 0 -58 12 -78 29 -49 10 17 10 17
11 0 0 -10 5 -15 10 -12 6 3 10 1 10 -5 0 -6 5 -8 10 -5 6 3 10 15 10 25 0 10
5 20 12 22 16 6 11 93 -8 130 -22 42 -26 31 -9 -27 18 -59 20 -90 3 -60 -6 11
-26 36 -44 55 -18 19 -37 53 -43 75 l-9 40 -1 -42z"/>
<path d="M1815 2269 c-68 -70 -175 -144 -230 -159 -26 -7 -42 -16 -36 -19 21
-13 59 -569 70 -1006 5 -210 9 -276 15 -237 l9 52 581 0 c319 0 626 3 681 8
62 4 -159 9 -585 12 l-685 5 -6 300 c-6 270 -26 601 -48 790 -9 77 -8 85 18
85 45 0 197 116 252 193 30 40 19 33 -36 -24z"/>
<path d="M3108 2299 c6 -7 13 -24 13 -38 1 -16 3 -19 6 -9 4 14 12 13 67 -13
132 -62 342 -62 464 0 l60 30 15 -32 c8 -18 17 -41 20 -52 4 -15 5 -14 6 7 1
22 -20 83 -36 107 -2 3 -13 -5 -26 -16 -53 -49 -142 -73 -268 -73 -107 0 -204
23 -276 66 -32 20 -52 30 -45 23z"/>
<path d="M3715 2140 c2 -52 18 -270 35 -485 17 -214 39 -534 49 -710 11 -196
19 -281 20 -220 2 185 -28 662 -75 1200 -25 295 -38 386 -29 215z"/>
<path d="M1325 2201 c-16 -10 -39 -29 -50 -41 l-20 -23 30 17 c42 24 92 66 80
66 -5 0 -23 -8 -40 -19z"/>
<path d="M3110 2203 c0 -10 -7 -67 -14 -128 -43 -326 -76 -832 -80 -1225 l-1
-105 -455 -2 c-250 -2 -466 -4 -480 -6 -14 -2 189 -5 451 -6 354 -1 478 -4
487 -13 9 -9 12 16 12 112 0 283 36 835 86 1323 4 37 4 67 0 67 -3 0 -6 -8 -6
-17z"/>
<path d="M1246 2033 c-27 -150 -55 -342 -70 -493 -17 -157 -37 -532 -35 -645
1 -67 2 -68 10 -25 4 25 8 90 8 146 1 55 6 172 12 260 10 158 55 573 62 580 4
5 37 -306 67 -631 11 -121 24 -256 29 -300 8 -75 8 -76 10 -25 2 91 -50 671
-84 930 -12 91 -12 116 1 193 9 49 13 91 11 93 -3 3 -12 -35 -21 -83z"/>
<path d="M3497 2001 c-47 -50 -59 -69 -34 -54 21 13 90 93 85 98 -3 3 -26 -17
-51 -44z"/>
<path d="M4066 1928 c-27 -43 -39 -110 -32 -190 4 -53 3 -79 -5 -84 -8 -4 -10
-25 -6 -61 4 -41 2 -55 -8 -59 -31 -12 -27 -69 10 -157 6 -15 4 -16 -20 -7
l-28 11 6 -103 c4 -57 16 -155 27 -218 23 -130 28 -136 118 -170 106 -40 274
-12 317 54 8 11 19 59 24 106 13 97 15 330 4 330 -5 0 -8 112 -8 249 0 231 -1
250 -19 270 -63 70 -141 -27 -161 -199 -6 -53 -8 -55 -36 -55 -33 0 -32 -2
-65 153 -27 129 -81 188 -118 130z m62 -10 c16 -20 39 -108 77 -289 18 -90 34
-153 34 -139 0 14 -4 45 -9 70 -9 50 2 83 25 74 18 -7 30 -50 46 -164 14 -97
28 -128 21 -46 -5 67 2 102 25 110 28 11 43 -16 49 -95 l7 -76 -33 -6 c-42 -9
-248 -9 -289 -1 -37 8 -58 42 -68 109 -5 40 -3 47 14 51 18 5 18 10 9 55 -8
40 -7 54 6 77 13 22 14 38 7 82 -5 30 -6 63 -3 74 5 15 11 9 34 -30 20 -37 31
-78 43 -163 9 -63 15 -116 13 -118 -2 -2 -21 26 -42 62 -21 36 -40 61 -42 55
-4 -11 36 -84 73 -135 13 -16 27 -48 34 -70 9 -35 10 -32 3 25 -4 36 -6 126
-5 200 1 127 1 132 -11 80 l-12 -55 -13 104 c-17 130 -33 184 -25 86 l5 -70
-25 40 c-23 37 -23 42 -10 74 8 18 14 35 14 37 0 10 39 3 48 -8z m258 -90 c-4
-40 -9 -99 -13 -130 l-6 -58 -28 45 c-16 25 -29 56 -29 68 1 49 49 147 72 147
7 0 9 -22 4 -72z m53 49 c13 -35 23 -310 14 -412 -7 -74 -11 -90 -25 -93 -16
-3 -18 6 -18 72 0 62 -4 80 -19 95 -22 22 -59 18 -69 -8 -7 -19 -32 70 -31
114 1 71 13 71 51 -1 l36 -68 7 70 c4 40 18 89 31 116 29 58 30 67 4 43 -20
-18 -20 -17 -20 38 0 44 3 57 15 57 9 0 19 -10 24 -23z"/>
<path d="M3427 1757 c-4 -40 -22 -242 -42 -450 -19 -207 -37 -423 -41 -480
l-7 -102 94 0 94 0 6 -35 c13 -75 8 17 -11 199 -25 231 -57 619 -66 799 -4 73
-10 135 -14 137 -4 2 -10 -28 -13 -68z m22 -267 c7 -91 21 -255 31 -365 11
-110 20 -208 20 -217 0 -15 -10 -18 -63 -18 -35 0 -66 2 -68 4 -3 3 10 162 28
353 17 191 32 363 32 382 2 73 10 19 20 -139z m57 -624 c1 0 5 -29 9 -63 l7
-63 -86 0 c-97 0 -93 -4 -80 91 l6 45 72 -4 c39 -2 72 -5 72 -6z"/>
<path d="M865 781 c11 -13 32 -29 47 -37 27 -14 28 -16 28 -104 0 -84 -1 -90
-20 -90 -11 0 -50 -13 -85 -29 -94 -43 -214 -161 -162 -161 18 0 187 53 297
92 l95 34 0 118 0 118 39 13 c21 7 43 18 49 24 5 5 -8 3 -29 -4 -76 -27 -187
-15 -249 28 l-30 21 20 -23z"/>
<path d="M1601 746 c-6 -8 -35 -24 -63 -36 -51 -22 -105 -24 -163 -5 -12 4
-10 1 6 -9 24 -14 26 -21 32 -107 7 -115 15 -125 97 -122 68 3 309 30 346 39
35 9 29 33 -13 52 -30 13 -64 16 -169 14 l-131 -2 -7 57 c-5 41 -3 59 5 62 15
5 87 70 78 71 -4 0 -12 -6 -18 -14z"/>
<path d="M3049 656 c13 -14 36 -30 52 -36 28 -12 29 -14 29 -85 l0 -72 -52 -6
c-104 -13 -218 -71 -191 -98 14 -14 160 0 283 29 l75 17 3 103 c3 100 3 102
30 116 31 16 70 56 55 56 -6 0 -17 -7 -24 -17 -47 -56 -201 -56 -248 0 -7 10
-18 17 -24 17 -6 0 0 -11 12 -24z"/>
<path d="M3540 617 c0 -20 38 -47 67 -47 22 0 26 -7 38 -67 6 -30 4 -32 -32
-42 -21 -6 -54 -11 -74 -11 -37 0 -138 -26 -152 -40 -13 -12 107 -31 242 -38
83 -5 125 -4 132 4 5 6 5 45 -1 95 -5 46 -10 89 -10 95 0 6 15 16 33 22 29 10
29 11 -13 4 -25 -4 -78 -7 -118 -7 -65 0 -76 3 -93 24 -14 17 -19 19 -19 8z"/>
</g>
</svg>
